STARTFONT 2.1
FONT -Sun-Screen-Bold-R-Normal--14-140-72-72-M-90-ISO8859-1
SIZE 14 72 72
FONTBOUNDINGBOX 9 16 0 -5

STARTPROPERTIES 21
FONTNAME_REGISTRY ""
FOUNDRY "Sun"
FAMILY_NAME "Screen"
WEIGHT_NAME "Bold"
SLANT "R"
SETWIDTH_NAME "Normal"
ADD_STYLE_NAME ""
PIXEL_SIZE 14
POINT_SIZE 140
RESOLUTION_X 72
RESOLUTION_Y 72
SPACING "M"
AVERAGE_WIDTH 90
CHARSET_REGISTRY "ISO8859"
CHARSET_ENCODING "1"
WEIGHT 10
X_HEIGHT -1
QUAD_WIDTH 9
DEFAULT_CHAR 32
FONT_DESCENT 5
FONT_ASCENT 11
ENDPROPERTIES

CHARS 191

STARTCHAR <unknown>
ENCODING 32
SWIDTH 42 0
DWIDTH 9 0
BBX 9 16 0 -5
BITMAP
0000
0000
0000
0000
0000
0000
0000
0000
0000
0000
0000
0000
0000
0000
0000
0000
ENDCHAR

STARTCHAR <unknown>
ENCODING 33
SWIDTH 42 0
DWIDTH 9 0
BBX 9 16 0 -5
BITMAP
0000
0000
1800
1800
1800
1800
1800
1800
1800
0000
1800
1800
0000
0000
0000
0000
ENDCHAR

STARTCHAR <unknown>
ENCODING 34
SWIDTH 42 0
DWIDTH 9 0
BBX 9 16 0 -5
BITMAP
0000
0000
3600
3600
3600
3600
0000
0000
0000
0000
0000
0000
0000
0000
0000
0000
ENDCHAR

STARTCHAR <unknown>
ENCODING 35
SWIDTH 42 0
DWIDTH 9 0
BBX 9 16 0 -5
BITMAP
0000
0000
1B00
1B00
1B00
7F80
3600
3600
FF00
6C00
6C00
6C00
0000
0000
0000
0000
ENDCHAR

STARTCHAR <unknown>
ENCODING 36
SWIDTH 42 0
DWIDTH 9 0
BBX 9 16 0 -5
BITMAP
0000
0800
3E00
6B00
6B00
6B00
3800
0E00
6B00
6B00
6B00
3E00
0800
0000
0000
0000
ENDCHAR

STARTCHAR <unknown>
ENCODING 37
SWIDTH 42 0
DWIDTH 9 0
BBX 9 16 0 -5
BITMAP
0000
0000
7600
9600
9C00
EC00
1800
1800
3700
3900
6900
6E00
0000
0000
0000
0000
ENDCHAR

STARTCHAR <unknown>
ENCODING 38
SWIDTH 42 0
DWIDTH 9 0
BBX 9 16 0 -5
BITMAP
0000
0000
3800
6C00
6C00
3800
3000
7B00
DE00
CC00
DC00
7700
0000
0000
0000
0000
ENDCHAR

STARTCHAR <unknown>
ENCODING 39
SWIDTH 42 0
DWIDTH 9 0
BBX 9 16 0 -5
BITMAP
0000
0000
0C00
0C00
1800
3000
0000
0000
0000
0000
0000
0000
0000
0000
0000
0000
ENDCHAR

STARTCHAR <unknown>
ENCODING 40
SWIDTH 42 0
DWIDTH 9 0
BBX 9 16 0 -5
BITMAP
0000
0600
0C00
1800
1800
3000
3000
3000
3000
3000
1800
1800
0C00
0600
0000
0000
ENDCHAR

STARTCHAR <unknown>
ENCODING 41
SWIDTH 42 0
DWIDTH 9 0
BBX 9 16 0 -5
BITMAP
0000
3000
1800
0C00
0C00
0600
0600
0600
0600
0600
0C00
0C00
1800
3000
0000
0000
ENDCHAR

STARTCHAR <unknown>
ENCODING 42
SWIDTH 42 0
DWIDTH 9 0
BBX 9 16 0 -5
BITMAP
0000
0000
0000
1800
5A00
7E00
3C00
7E00
5A00
1800
0000
0000
0000
0000
0000
0000
ENDCHAR

STARTCHAR <unknown>
ENCODING 43
SWIDTH 42 0
DWIDTH 9 0
BBX 9 16 0 -5
BITMAP
0000
0000
0000
0000
1800
1800
1800
FF00
FF00
1800
1800
1800
0000
0000
0000
0000
ENDCHAR

STARTCHAR <unknown>
ENCODING 44
SWIDTH 42 0
DWIDTH 9 0
BBX 9 16 0 -5
BITMAP
0000
0000
0000
0000
0000
0000
0000
0000
0000
0000
1800
1800
0800
1000
2000
0000
ENDCHAR

STARTCHAR <unknown>
ENCODING 45
SWIDTH 42 0
DWIDTH 9 0
BBX 9 16 0 -5
BITMAP
0000
0000
0000
0000
0000
0000
0000
7F00
7F00
0000
0000
0000
0000
0000
0000
0000
ENDCHAR

STARTCHAR <unknown>
ENCODING 46
SWIDTH 42 0
DWIDTH 9 0
BBX 9 16 0 -5
BITMAP
0000
0000
0000
0000
0000
0000
0000
0000
0000
0000
1800
1800
0000
0000
0000
0000
ENDCHAR

STARTCHAR <unknown>
ENCODING 47
SWIDTH 42 0
DWIDTH 9 0
BBX 9 16 0 -5
BITMAP
0000
0300
0600
0600
0C00
0C00
1800
1800
3000
3000
6000
6000
C000
0000
0000
0000
ENDCHAR

STARTCHAR <unknown>
ENCODING 48
SWIDTH 42 0
DWIDTH 9 0
BBX 9 16 0 -5
BITMAP
0000
0000
1C00
2200
6300
6300
6300
6300
6300
6300
2200
1C00
0000
0000
0000
0000
ENDCHAR

STARTCHAR <unknown>
ENCODING 49
SWIDTH 42 0
DWIDTH 9 0
BBX 9 16 0 -5
BITMAP
0000
0000
0C00
1C00
3C00
0C00
0C00
0C00
0C00
0C00
0C00
3F00
0000
0000
0000
0000
ENDCHAR

STARTCHAR <unknown>
ENCODING 50
SWIDTH 42 0
DWIDTH 9 0
BBX 9 16 0 -5
BITMAP
0000
0000
3E00
6300
6300
0300
0600
0C00
1800
3000
6100
7F00
0000
0000
0000
0000
ENDCHAR

STARTCHAR <unknown>
ENCODING 51
SWIDTH 42 0
DWIDTH 9 0
BBX 9 16 0 -5
BITMAP
0000
0000
3E00
6300
6300
0300
1E00
0700
0300
6300
6300
3E00
0000
0000
0000
0000
ENDCHAR

STARTCHAR <unknown>
ENCODING 52
SWIDTH 42 0
DWIDTH 9 0
BBX 9 16 0 -5
BITMAP
0000
0000
0200
0600
0E00
1E00
3600
6600
C600
FF00
0600
0600
0000
0000
0000
0000
ENDCHAR

STARTCHAR <unknown>
ENCODING 53
SWIDTH 42 0
DWIDTH 9 0
BBX 9 16 0 -5
BITMAP
0000
0000
7F00
6000
6000
7E00
0300
0300
0300
6300
6300
3E00
0000
0000
0000
0000
ENDCHAR

STARTCHAR <unknown>
ENCODING 54
SWIDTH 42 0
DWIDTH 9 0
BBX 9 16 0 -5
BITMAP
0000
0000
3E00
6300
6000
6000
7E00
6300
6300
6300
6300
3E00
0000
0000
0000
0000
ENDCHAR

STARTCHAR <unknown>
ENCODING 55
SWIDTH 42 0
DWIDTH 9 0
BBX 9 16 0 -5
BITMAP
0000
0000
7F00
4300
4300
0600
0600
0C00
0C00
1800
1800
1800
0000
0000
0000
0000
ENDCHAR

STARTCHAR <unknown>
ENCODING 56
SWIDTH 42 0
DWIDTH 9 0
BBX 9 16 0 -5
BITMAP
0000
0000
3E00
6300
6300
6300
3E00
6300
6300
6300
6300
3E00
0000
0000
0000
0000
ENDCHAR

STARTCHAR <unknown>
ENCODING 57
SWIDTH 42 0
DWIDTH 9 0
BBX 9 16 0 -5
BITMAP
0000
0000
3E00
6300
6300
6300
6300
3F00
0300
0300
6300
3E00
0000
0000
0000
0000
ENDCHAR

STARTCHAR <unknown>
ENCODING 58
SWIDTH 42 0
DWIDTH 9 0
BBX 9 16 0 -5
BITMAP
0000
0000
0000
0000
0000
1800
1800
0000
0000
0000
1800
1800
0000
0000
0000
0000
ENDCHAR

STARTCHAR <unknown>
ENCODING 59
SWIDTH 42 0
DWIDTH 9 0
BBX 9 16 0 -5
BITMAP
0000
0000
0000
0000
0000
1800
1800
0000
0000
0000
1800
1800
0800
1000
2000
0000
ENDCHAR

STARTCHAR <unknown>
ENCODING 60
SWIDTH 42 0
DWIDTH 9 0
BBX 9 16 0 -5
BITMAP
0000
0300
0600
0C00
1800
3000
6000
3000
1800
0C00
0600
0300
0000
0000
0000
0000
ENDCHAR

STARTCHAR <unknown>
ENCODING 61
SWIDTH 42 0
DWIDTH 9 0
BBX 9 16 0 -5
BITMAP
0000
0000
0000
0000
0000
7F00
7F00
0000
0000
7F00
7F00
0000
0000
0000
0000
0000
ENDCHAR

STARTCHAR <unknown>
ENCODING 62
SWIDTH 42 0
DWIDTH 9 0
BBX 9 16 0 -5
BITMAP
0000
6000
3000
1800
0C00
0600
0300
0600
0C00
1800
3000
6000
0000
0000
0000
0000
ENDCHAR

STARTCHAR <unknown>
ENCODING 63
SWIDTH 42 0
DWIDTH 9 0
BBX 9 16 0 -5
BITMAP
0000
0000
3E00
6300
6300
0300
0600
0C00
0C00
0000
0C00
0C00
0000
0000
0000
0000
ENDCHAR

STARTCHAR <unknown>
ENCODING 64
SWIDTH 42 0
DWIDTH 9 0
BBX 9 16 0 -5
BITMAP
0000
0000
1C00
3600
6300
6F00
6B00
6B00
6E00
6000
3300
1E00
0000
0000
0000
0000
ENDCHAR

STARTCHAR <unknown>
ENCODING 65
SWIDTH 42 0
DWIDTH 9 0
BBX 9 16 0 -5
BITMAP
0000
0000
0800
1C00
1C00
3600
3600
3600
6300
7F00
6300
6300
0000
0000
0000
0000
ENDCHAR

STARTCHAR <unknown>
ENCODING 66
SWIDTH 42 0
DWIDTH 9 0
BBX 9 16 0 -5
BITMAP
0000
0000
7C00
6600
6600
6600
7C00
6600
6300
6300
6300
7E00
0000
0000
0000
0000
ENDCHAR

STARTCHAR <unknown>
ENCODING 67
SWIDTH 42 0
DWIDTH 9 0
BBX 9 16 0 -5
BITMAP
0000
0000
3E00
6300
6300
6000
6000
6000
6000
6300
6300
3E00
0000
0000
0000
0000
ENDCHAR

STARTCHAR <unknown>
ENCODING 68
SWIDTH 42 0
DWIDTH 9 0
BBX 9 16 0 -5
BITMAP
0000
0000
7C00
6600
6300
6300
6300
6300
6300
6300
6600
7C00
0000
0000
0000
0000
ENDCHAR

STARTCHAR <unknown>
ENCODING 69
SWIDTH 42 0
DWIDTH 9 0
BBX 9 16 0 -5
BITMAP
0000
0000
7F00
6000
6000
6000
7E00
6000
6000
6000
6000
7F00
0000
0000
0000
0000
ENDCHAR

STARTCHAR <unknown>
ENCODING 70
SWIDTH 42 0
DWIDTH 9 0
BBX 9 16 0 -5
BITMAP
0000
0000
7F00
6000
6000
6000
7E00
6000
6000
6000
6000
6000
0000
0000
0000
0000
ENDCHAR

STARTCHAR <unknown>
ENCODING 71
SWIDTH 42 0
DWIDTH 9 0
BBX 9 16 0 -5
BITMAP
0000
0000
3E00
6300
6300
6000
6000
6700
6300
6300
6700
3D00
0000
0000
0000
0000
ENDCHAR

STARTCHAR <unknown>
ENCODING 72
SWIDTH 42 0
DWIDTH 9 0
BBX 9 16 0 -5
BITMAP
0000
0000
6300
6300
6300
6300
7F00
6300
6300
6300
6300
6300
0000
0000
0000
0000
ENDCHAR

STARTCHAR <unknown>
ENCODING 73
SWIDTH 42 0
DWIDTH 9 0
BBX 9 16 0 -5
BITMAP
0000
0000
7E00
1800
1800
1800
1800
1800
1800
1800
1800
7E00
0000
0000
0000
0000
ENDCHAR

STARTCHAR <unknown>
ENCODING 74
SWIDTH 42 0
DWIDTH 9 0
BBX 9 16 0 -5
BITMAP
0000
0000
1F00
0600
0600
0600
0600
0600
0600
6600
6600
3C00
0000
0000
0000
0000
ENDCHAR

STARTCHAR <unknown>
ENCODING 75
SWIDTH 42 0
DWIDTH 9 0
BBX 9 16 0 -5
BITMAP
0000
0000
6300
6600
6C00
7800
7C00
6C00
6600
6600
6300
6300
0000
0000
0000
0000
ENDCHAR

STARTCHAR <unknown>
ENCODING 76
SWIDTH 42 0
DWIDTH 9 0
BBX 9 16 0 -5
BITMAP
0000
0000
6000
6000
6000
6000
6000
6000
6000
6000
6000
7F00
0000
0000
0000
0000
ENDCHAR

STARTCHAR <unknown>
ENCODING 77
SWIDTH 42 0
DWIDTH 9 0
BBX 9 16 0 -5
BITMAP
0000
0000
C300
C300
E700
E700
FF00
DB00
DB00
C300
C300
C300
0000
0000
0000
0000
ENDCHAR

STARTCHAR <unknown>
ENCODING 78
SWIDTH 42 0
DWIDTH 9 0
BBX 9 16 0 -5
BITMAP
0000
0000
6300
6300
7300
7300
7B00
6B00
6F00
6700
6700
6300
0000
0000
0000
0000
ENDCHAR

STARTCHAR <unknown>
ENCODING 79
SWIDTH 42 0
DWIDTH 9 0
BBX 9 16 0 -5
BITMAP
0000
0000
3E00
6300
6300
6300
6300
6300
6300
6300
6300
3E00
0000
0000
0000
0000
ENDCHAR

STARTCHAR <unknown>
ENCODING 80
SWIDTH 42 0
DWIDTH 9 0
BBX 9 16 0 -5
BITMAP
0000
0000
7E00
6300
6300
6300
6300
7E00
6000
6000
6000
6000
0000
0000
0000
0000
ENDCHAR

STARTCHAR <unknown>
ENCODING 81
SWIDTH 42 0
DWIDTH 9 0
BBX 9 16 0 -5
BITMAP
0000
0000
3E00
6300
6300
6300
6300
6300
6300
6300
6300
3E00
1800
0C00
0700
0000
ENDCHAR

STARTCHAR <unknown>
ENCODING 82
SWIDTH 42 0
DWIDTH 9 0
BBX 9 16 0 -5
BITMAP
0000
0000
7E00
6300
6300
6300
7E00
6C00
6600
6600
6300
6300
0000
0000
0000
0000
ENDCHAR

STARTCHAR <unknown>
ENCODING 83
SWIDTH 42 0
DWIDTH 9 0
BBX 9 16 0 -5
BITMAP
0000
0000
3E00
6300
6300
3000
1C00
0600
0300
6300
6300
3E00
0000
0000
0000
0000
ENDCHAR

STARTCHAR <unknown>
ENCODING 84
SWIDTH 42 0
DWIDTH 9 0
BBX 9 16 0 -5
BITMAP
0000
0000
FF00
1800
1800
1800
1800
1800
1800
1800
1800
1800
0000
0000
0000
0000
ENDCHAR

STARTCHAR <unknown>
ENCODING 85
SWIDTH 42 0
DWIDTH 9 0
BBX 9 16 0 -5
BITMAP
0000
0000
6300
6300
6300
6300
6300
6300
6300
6300
6300
3E00
0000
0000
0000
0000
ENDCHAR

STARTCHAR <unknown>
ENCODING 86
SWIDTH 42 0
DWIDTH 9 0
BBX 9 16 0 -5
BITMAP
0000
0000
6300
6300
6300
3600
3600
3600
1C00
1C00
0800
0800
0000
0000
0000
0000
ENDCHAR

STARTCHAR <unknown>
ENCODING 87
SWIDTH 42 0
DWIDTH 9 0
BBX 9 16 0 -5
BITMAP
0000
0000
C180
C980
C980
DD80
5D00
7700
7700
3600
2200
2200
0000
0000
0000
0000
ENDCHAR

STARTCHAR <unknown>
ENCODING 88
SWIDTH 42 0
DWIDTH 9 0
BBX 9 16 0 -5
BITMAP
0000
0000
6300
6300
3600
3600
1C00
1C00
3600
3600
6300
6300
0000
0000
0000
0000
ENDCHAR

STARTCHAR <unknown>
ENCODING 89
SWIDTH 42 0
DWIDTH 9 0
BBX 9 16 0 -5
BITMAP
0000
0000
C300
C300
6600
6600
3C00
1800
1800
1800
1800
1800
0000
0000
0000
0000
ENDCHAR

STARTCHAR <unknown>
ENCODING 90
SWIDTH 42 0
DWIDTH 9 0
BBX 9 16 0 -5
BITMAP
0000
0000
7F00
0300
0300
0600
0C00
1800
3000
6000
6000
7F00
0000
0000
0000
0000
ENDCHAR

STARTCHAR <unknown>
ENCODING 91
SWIDTH 42 0
DWIDTH 9 0
BBX 9 16 0 -5
BITMAP
0000
3E00
3000
3000
3000
3000
3000
3000
3000
3000
3000
3000
3000
3E00
0000
0000
ENDCHAR

STARTCHAR <unknown>
ENCODING 92
SWIDTH 42 0
DWIDTH 9 0
BBX 9 16 0 -5
BITMAP
0000
C000
6000
6000
3000
3000
1800
1800
0C00
0C00
0600
0600
0300
0000
0000
0000
ENDCHAR

STARTCHAR <unknown>
ENCODING 93
SWIDTH 42 0
DWIDTH 9 0
BBX 9 16 0 -5
BITMAP
0000
3E00
0600
0600
0600
0600
0600
0600
0600
0600
0600
0600
0600
3E00
0000
0000
ENDCHAR

STARTCHAR <unknown>
ENCODING 94
SWIDTH 42 0
DWIDTH 9 0
BBX 9 16 0 -5
BITMAP
0000
0000
0800
1C00
3600
6300
0000
0000
0000
0000
0000
0000
0000
0000
0000
0000
ENDCHAR

STARTCHAR <unknown>
ENCODING 95
SWIDTH 42 0
DWIDTH 9 0
BBX 9 16 0 -5
BITMAP
0000
0000
0000
0000
0000
0000
0000
0000
0000
0000
0000
0000
FF00
FF00
0000
0000
ENDCHAR

STARTCHAR <unknown>
ENCODING 96
SWIDTH 42 0
DWIDTH 9 0
BBX 9 16 0 -5
BITMAP
0000
0000
3000
3000
1800
0C00
0000
0000
0000
0000
0000
0000
0000
0000
0000
0000
ENDCHAR

STARTCHAR <unknown>
ENCODING 97
SWIDTH 42 0
DWIDTH 9 0
BBX 9 16 0 -5
BITMAP
0000
0000
0000
0000
0000
3C00
6600
0600
3E00
6600
6600
3F00
0000
0000
0000
0000
ENDCHAR

STARTCHAR <unknown>
ENCODING 98
SWIDTH 42 0
DWIDTH 9 0
BBX 9 16 0 -5
BITMAP
0000
0000
6000
6000
6000
6E00
7300
6300
6300
6300
7300
6E00
0000
0000
0000
0000
ENDCHAR

STARTCHAR <unknown>
ENCODING 99
SWIDTH 42 0
DWIDTH 9 0
BBX 9 16 0 -5
BITMAP
0000
0000
0000
0000
0000
3E00
6300
6000
6000
6000
6300
3E00
0000
0000
0000
0000
ENDCHAR

STARTCHAR <unknown>
ENCODING 100
SWIDTH 42 0
DWIDTH 9 0
BBX 9 16 0 -5
BITMAP
0000
0000
0300
0300
0300
3B00
6700
6300
6300
6300
6700
3B00
0000
0000
0000
0000
ENDCHAR

STARTCHAR <unknown>
ENCODING 101
SWIDTH 42 0
DWIDTH 9 0
BBX 9 16 0 -5
BITMAP
0000
0000
0000
0000
0000
3E00
6300
6300
7F00
6000
6300
3E00
0000
0000
0000
0000
ENDCHAR

STARTCHAR <unknown>
ENCODING 102
SWIDTH 42 0
DWIDTH 9 0
BBX 9 16 0 -5
BITMAP
0000
0000
0E00
1B00
1800
1800
7E00
1800
1800
1800
1800
1800
0000
0000
0000
0000
ENDCHAR

STARTCHAR <unknown>
ENCODING 103
SWIDTH 42 0
DWIDTH 9 0
BBX 9 16 0 -5
BITMAP
0000
0000
0000
0000
0000
3B00
6700
6300
6300
6300
6700
3B00
0300
6300
3E00
0000
ENDCHAR

STARTCHAR <unknown>
ENCODING 104
SWIDTH 42 0
DWIDTH 9 0
BBX 9 16 0 -5
BITMAP
0000
0000
6000
6000
6000
6E00
7300
6300
6300
6300
6300
6300
0000
0000
0000
0000
ENDCHAR

STARTCHAR <unknown>
ENCODING 105
SWIDTH 42 0
DWIDTH 9 0
BBX 9 16 0 -5
BITMAP
0000
0000
0C00
0C00
0000
3C00
0C00
0C00
0C00
0C00
0C00
0C00
0000
0000
0000
0000
ENDCHAR

STARTCHAR <unknown>
ENCODING 106
SWIDTH 42 0
DWIDTH 9 0
BBX 9 16 0 -5
BITMAP
0000
0000
0600
0600
0000
1E00
0600
0600
0600
0600
0600
0600
0600
6600
3C00
0000
ENDCHAR

STARTCHAR <unknown>
ENCODING 107
SWIDTH 42 0
DWIDTH 9 0
BBX 9 16 0 -5
BITMAP
0000
0000
6000
6000
6000
6600
6C00
7800
7800
6C00
6600
6300
0000
0000
0000
0000
ENDCHAR

STARTCHAR <unknown>
ENCODING 108
SWIDTH 42 0
DWIDTH 9 0
BBX 9 16 0 -5
BITMAP
0000
0000
3C00
0C00
0C00
0C00
0C00
0C00
0C00
0C00
0C00
0C00
0000
0000
0000
0000
ENDCHAR

STARTCHAR <unknown>
ENCODING 109
SWIDTH 42 0
DWIDTH 9 0
BBX 9 16 0 -5
BITMAP
0000
0000
0000
0000
0000
B600
DB00
DB00
DB00
DB00
DB00
DB00
0000
0000
0000
0000
ENDCHAR

STARTCHAR <unknown>
ENCODING 110
SWIDTH 42 0
DWIDTH 9 0
BBX 9 16 0 -5
BITMAP
0000
0000
0000
0000
0000
5E00
7300
6300
6300
6300
6300
6300
0000
0000
0000
0000
ENDCHAR

STARTCHAR <unknown>
ENCODING 111
SWIDTH 42 0
DWIDTH 9 0
BBX 9 16 0 -5
BITMAP
0000
0000
0000
0000
0000
3E00
6300
6300
6300
6300
6300
3E00
0000
0000
0000
0000
ENDCHAR

STARTCHAR <unknown>
ENCODING 112
SWIDTH 42 0
DWIDTH 9 0
BBX 9 16 0 -5
BITMAP
0000
0000
0000
0000
0000
6E00
7300
6300
6300
6300
7300
6E00
6000
6000
6000
6000
ENDCHAR

STARTCHAR <unknown>
ENCODING 113
SWIDTH 42 0
DWIDTH 9 0
BBX 9 16 0 -5
BITMAP
0000
0000
0000
0000
0000
3B00
6700
6300
6300
6300
6700
3B00
0300
0300
0300
0300
ENDCHAR

STARTCHAR <unknown>
ENCODING 114
SWIDTH 42 0
DWIDTH 9 0
BBX 9 16 0 -5
BITMAP
0000
0000
0000
0000
0000
6E00
7B00
6000
6000
6000
6000
6000
0000
0000
0000
0000
ENDCHAR

STARTCHAR <unknown>
ENCODING 115
SWIDTH 42 0
DWIDTH 9 0
BBX 9 16 0 -5
BITMAP
0000
0000
0000
0000
0000
3E00
6300
6000
3E00
0300
6300
3E00
0000
0000
0000
0000
ENDCHAR

STARTCHAR <unknown>
ENCODING 116
SWIDTH 42 0
DWIDTH 9 0
BBX 9 16 0 -5
BITMAP
0000
0000
1800
1800
1800
7E00
1800
1800
1800
1800
1B00
0E00
0000
0000
0000
0000
ENDCHAR

STARTCHAR <unknown>
ENCODING 117
SWIDTH 42 0
DWIDTH 9 0
BBX 9 16 0 -5
BITMAP
0000
0000
0000
0000
0000
6300
6300
6300
6300
6300
6700
3B00
0000
0000
0000
0000
ENDCHAR

STARTCHAR <unknown>
ENCODING 118
SWIDTH 42 0
DWIDTH 9 0
BBX 9 16 0 -5
BITMAP
0000
0000
0000
0000
0000
6300
6300
3600
3600
1C00
1C00
0800
0000
0000
0000
0000
ENDCHAR

STARTCHAR <unknown>
ENCODING 119
SWIDTH 42 0
DWIDTH 9 0
BBX 9 16 0 -5
BITMAP
0000
0000
0000
0000
0000
C300
C300
DB00
DB00
DB00
DB00
7E00
0000
0000
0000
0000
ENDCHAR

STARTCHAR <unknown>
ENCODING 120
SWIDTH 42 0
DWIDTH 9 0
BBX 9 16 0 -5
BITMAP
0000
0000
0000
0000
0000
6600
6600
3C00
1800
3C00
6600
6600
0000
0000
0000
0000
ENDCHAR

STARTCHAR <unknown>
ENCODING 121
SWIDTH 42 0
DWIDTH 9 0
BBX 9 16 0 -5
BITMAP
0000
0000
0000
0000
0000
6300
6300
3300
3600
1600
1C00
0C00
0C00
4800
7800
3000
ENDCHAR

STARTCHAR <unknown>
ENCODING 122
SWIDTH 42 0
DWIDTH 9 0
BBX 9 16 0 -5
BITMAP
0000
0000
0000
0000
0000
7F00
0600
0C00
1800
3000
6000
7F00
0000
0000
0000
0000
ENDCHAR

STARTCHAR <unknown>
ENCODING 123
SWIDTH 42 0
DWIDTH 9 0
BBX 9 16 0 -5
BITMAP
0000
0F00
1800
1800
1800
1800
1800
7000
1800
1800
1800
1800
1800
0F00
0000
0000
ENDCHAR

STARTCHAR <unknown>
ENCODING 124
SWIDTH 42 0
DWIDTH 9 0
BBX 9 16 0 -5
BITMAP
0000
1800
1800
1800
1800
1800
1800
0000
1800
1800
1800
1800
1800
1800
0000
0000
ENDCHAR

STARTCHAR <unknown>
ENCODING 125
SWIDTH 42 0
DWIDTH 9 0
BBX 9 16 0 -5
BITMAP
0000
7800
0C00
0C00
0C00
0C00
0C00
0700
0C00
0C00
0C00
0C00
0C00
7800
0000
0000
ENDCHAR

STARTCHAR <unknown>
ENCODING 126
SWIDTH 42 0
DWIDTH 9 0
BBX 9 16 0 -5
BITMAP
0000
0000
0000
3B00
7F00
6E00
0000
0000
0000
0000
0000
0000
0000
0000
0000
0000
ENDCHAR

STARTCHAR <unknown>
ENCODING 160
SWIDTH 42 0
DWIDTH 9 0
BBX 9 16 0 -5
BITMAP
0000
0000
0000
0000
0000
0000
0000
0000
0000
0000
0000
0000
0000
0000
0000
0000
ENDCHAR

STARTCHAR <unknown>
ENCODING 161
SWIDTH 42 0
DWIDTH 9 0
BBX 9 16 0 -5
BITMAP
0000
0000
0C00
0C00
0000
0000
0C00
0C00
0C00
0C00
0C00
0C00
0000
0000
0000
0000
ENDCHAR

STARTCHAR <unknown>
ENCODING 162
SWIDTH 42 0
DWIDTH 9 0
BBX 9 16 0 -5
BITMAP
0000
0000
0000
0000
0800
3E00
6B00
6800
6800
6800
6B00
3E00
0800
0000
0000
0000
ENDCHAR

STARTCHAR <unknown>
ENCODING 163
SWIDTH 42 0
DWIDTH 9 0
BBX 9 16 0 -5
BITMAP
0000
0000
0E00
1900
1800
1800
1800
7C00
1800
1800
1880
3D80
6F00
0000
0000
0000
ENDCHAR

STARTCHAR <unknown>
ENCODING 164
SWIDTH 42 0
DWIDTH 9 0
BBX 9 16 0 -5
BITMAP
0000
0000
0000
0000
4100
3E00
3E00
3600
3E00
3E00
4100
0000
0000
0000
0000
0000
ENDCHAR

STARTCHAR <unknown>
ENCODING 165
SWIDTH 42 0
DWIDTH 9 0
BBX 9 16 0 -5
BITMAP
0000
0000
6180
3300
1E00
0C00
0C00
1E00
0C00
0C00
0C00
0C00
0000
0000
0000
0000
ENDCHAR

STARTCHAR <unknown>
ENCODING 166
SWIDTH 42 0
DWIDTH 9 0
BBX 9 16 0 -5
BITMAP
0000
0C00
0C00
0C00
0C00
0C00
0C00
0000
0C00
0C00
0C00
0C00
0C00
0C00
0000
0000
ENDCHAR

STARTCHAR <unknown>
ENCODING 167
SWIDTH 42 0
DWIDTH 9 0
BBX 9 16 0 -5
BITMAP
0000
1E00
3300
3000
3000
1E00
3300
3300
1E00
0300
0300
3300
1E00
0000
0000
0000
ENDCHAR

STARTCHAR <unknown>
ENCODING 168
SWIDTH 42 0
DWIDTH 9 0
BBX 9 16 0 -5
BITMAP
0000
0000
1200
1200
0000
0000
0000
0000
0000
0000
0000
0000
0000
0000
0000
0000
ENDCHAR

STARTCHAR <unknown>
ENCODING 169
SWIDTH 42 0
DWIDTH 9 0
BBX 9 16 0 -5
BITMAP
0000
0000
1E00
2100
4E80
5880
5880
4E80
2100
1E00
0000
0000
0000
0000
0000
0000
ENDCHAR

STARTCHAR <unknown>
ENCODING 170
SWIDTH 42 0
DWIDTH 9 0
BBX 9 16 0 -5
BITMAP
0000
0000
0E00
0300
0F00
1B00
0F00
0000
1F00
0000
0000
0000
0000
0000
0000
0000
ENDCHAR

STARTCHAR <unknown>
ENCODING 171
SWIDTH 42 0
DWIDTH 9 0
BBX 9 16 0 -5
BITMAP
0000
0000
0000
0000
0000
0000
1B00
3600
6C00
3600
1B00
0000
0000
0000
0000
0000
ENDCHAR

STARTCHAR <unknown>
ENCODING 172
SWIDTH 42 0
DWIDTH 9 0
BBX 9 16 0 -5
BITMAP
0000
0000
0000
7F00
7F00
0300
0300
0000
0000
0000
0000
0000
0000
0000
0000
0000
ENDCHAR

STARTCHAR <unknown>
ENCODING 173
SWIDTH 42 0
DWIDTH 9 0
BBX 9 16 0 -5
BITMAP
0000
0000
0000
0000
0000
0000
0000
3E00
3E00
0000
0000
0000
0000
0000
0000
0000
ENDCHAR

STARTCHAR <unknown>
ENCODING 174
SWIDTH 42 0
DWIDTH 9 0
BBX 9 16 0 -5
BITMAP
0000
0000
1E00
2100
5C80
5680
5C80
5680
2100
1E00
0000
0000
0000
0000
0000
0000
ENDCHAR

STARTCHAR <unknown>
ENCODING 175
SWIDTH 42 0
DWIDTH 9 0
BBX 9 16 0 -5
BITMAP
0000
0000
0000
3E00
0000
0000
0000
0000
0000
0000
0000
0000
0000
0000
0000
0000
ENDCHAR

STARTCHAR <unknown>
ENCODING 176
SWIDTH 42 0
DWIDTH 9 0
BBX 9 16 0 -5
BITMAP
0000
1C00
3600
1C00
0000
0000
0000
0000
0000
0000
0000
0000
0000
0000
0000
0000
ENDCHAR

STARTCHAR <unknown>
ENCODING 177
SWIDTH 42 0
DWIDTH 9 0
BBX 9 16 0 -5
BITMAP
0000
0000
0000
0C00
0C00
0C00
7F80
7F80
0C00
0C00
0C00
0000
7F80
7F80
0000
0000
ENDCHAR

STARTCHAR <unknown>
ENCODING 178
SWIDTH 42 0
DWIDTH 9 0
BBX 9 16 0 -5
BITMAP
0000
0000
0E00
1300
0300
0600
0C00
1800
1F00
0000
0000
0000
0000
0000
0000
0000
ENDCHAR

STARTCHAR <unknown>
ENCODING 179
SWIDTH 42 0
DWIDTH 9 0
BBX 9 16 0 -5
BITMAP
0000
0000
0E00
1300
0300
0E00
0300
1300
0E00
0000
0000
0000
0000
0000
0000
0000
ENDCHAR

STARTCHAR <unknown>
ENCODING 180
SWIDTH 42 0
DWIDTH 9 0
BBX 9 16 0 -5
BITMAP
0000
0600
0C00
1800
0000
0000
0000
0000
0000
0000
0000
0000
0000
0000
0000
0000
ENDCHAR

STARTCHAR <unknown>
ENCODING 181
SWIDTH 42 0
DWIDTH 9 0
BBX 9 16 0 -5
BITMAP
0000
0000
0000
0000
0000
6300
6300
6300
6300
6300
6700
7B80
6000
4000
8000
0000
ENDCHAR

STARTCHAR <unknown>
ENCODING 182
SWIDTH 42 0
DWIDTH 9 0
BBX 9 16 0 -5
BITMAP
0000
0000
3F80
7300
7300
7300
3300
1300
1300
1300
1300
3380
0000
0000
0000
0000
ENDCHAR

STARTCHAR <unknown>
ENCODING 183
SWIDTH 42 0
DWIDTH 9 0
BBX 9 16 0 -5
BITMAP
0000
0000
0000
0000
0000
0000
0000
0C00
0C00
0000
0000
0000
0000
0000
0000
0000
ENDCHAR

STARTCHAR <unknown>
ENCODING 184
SWIDTH 42 0
DWIDTH 9 0
BBX 9 16 0 -5
BITMAP
0000
0000
0000
0000
0000
0000
0000
0000
0000
0000
0000
0000
1800
0C00
3C00
0000
ENDCHAR

STARTCHAR <unknown>
ENCODING 185
SWIDTH 42 0
DWIDTH 9 0
BBX 9 16 0 -5
BITMAP
0000
0000
0600
0E00
0600
0600
0600
0600
0F00
0000
0000
0000
0000
0000
0000
0000
ENDCHAR

STARTCHAR <unknown>
ENCODING 186
SWIDTH 42 0
DWIDTH 9 0
BBX 9 16 0 -5
BITMAP
0000
0000
0E00
1B00
1B00
1B00
0E00
0000
1F00
0000
0000
0000
0000
0000
0000
0000
ENDCHAR

STARTCHAR <unknown>
ENCODING 187
SWIDTH 42 0
DWIDTH 9 0
BBX 9 16 0 -5
BITMAP
0000
0000
0000
0000
0000
0000
6C00
3600
1B00
3600
6C00
0000
0000
0000
0000
0000
ENDCHAR

STARTCHAR <unknown>
ENCODING 188
SWIDTH 42 0
DWIDTH 9 0
BBX 9 16 0 -5
BITMAP
0000
0000
0000
2000
6100
2200
2400
7A00
1600
2A00
4F00
0200
0000
0000
0000
0000
ENDCHAR

STARTCHAR <unknown>
ENCODING 189
SWIDTH 42 0
DWIDTH 9 0
BBX 9 16 0 -5
BITMAP
0000
0000
0000
2000
6100
2200
2400
7A00
1500
2100
4200
0700
0000
0000
0000
0000
ENDCHAR

STARTCHAR <unknown>
ENCODING 190
SWIDTH 42 0
DWIDTH 9 0
BBX 9 16 0 -5
BITMAP
0000
0000
0000
6000
1100
3200
1400
6A00
1600
2A00
4F00
0200
0000
0000
0000
0000
ENDCHAR

STARTCHAR <unknown>
ENCODING 191
SWIDTH 42 0
DWIDTH 9 0
BBX 9 16 0 -5
BITMAP
0000
0000
0C00
0C00
0000
0C00
1800
3000
6000
6100
6300
3E00
0000
0000
0000
0000
ENDCHAR

STARTCHAR <unknown>
ENCODING 192
SWIDTH 42 0
DWIDTH 9 0
BBX 9 16 0 -5
BITMAP
1800
0C00
0000
0C00
0C00
1E00
1200
3300
3300
7F80
6180
6180
0000
0000
0000
0000
ENDCHAR

STARTCHAR <unknown>
ENCODING 193
SWIDTH 42 0
DWIDTH 9 0
BBX 9 16 0 -5
BITMAP
0600
0C00
0000
0C00
0C00
1E00
1200
3300
3300
7F80
6180
6180
0000
0000
0000
0000
ENDCHAR

STARTCHAR <unknown>
ENCODING 194
SWIDTH 42 0
DWIDTH 9 0
BBX 9 16 0 -5
BITMAP
0C00
1600
2300
0C00
0C00
1E00
1200
3300
3300
7F80
6180
6180
0000
0000
0000
0000
ENDCHAR

STARTCHAR <unknown>
ENCODING 195
SWIDTH 42 0
DWIDTH 9 0
BBX 9 16 0 -5
BITMAP
1D00
2E00
0000
0C00
0C00
1E00
1200
3300
3300
7F80
6180
6180
0000
0000
0000
0000
ENDCHAR

STARTCHAR <unknown>
ENCODING 196
SWIDTH 42 0
DWIDTH 9 0
BBX 9 16 0 -5
BITMAP
2200
2200
0800
1C00
1C00
3600
3600
3600
6300
7F00
6300
6300
0000
0000
0000
0000
ENDCHAR

STARTCHAR <unknown>
ENCODING 197
SWIDTH 42 0
DWIDTH 9 0
BBX 9 16 0 -5
BITMAP
0C00
1200
1200
0C00
0C00
1E00
1200
3300
3300
7F80
6180
6180
0000
0000
0000
0000
ENDCHAR

STARTCHAR <unknown>
ENCODING 198
SWIDTH 42 0
DWIDTH 9 0
BBX 9 16 0 -5
BITMAP
0000
0000
0F80
1C00
1C00
2C00
2F00
4C00
7C00
CC00
8C00
8F80
0000
0000
0000
0000
ENDCHAR

STARTCHAR <unknown>
ENCODING 199
SWIDTH 42 0
DWIDTH 9 0
BBX 9 16 0 -5
BITMAP
0000
0000
3E00
6300
6100
6000
6000
6000
6000
6100
6300
3E00
1800
0C00
3C00
0000
ENDCHAR

STARTCHAR <unknown>
ENCODING 200
SWIDTH 42 0
DWIDTH 9 0
BBX 9 16 0 -5
BITMAP
1800
0C00
0000
7F00
6000
6000
6000
7E00
6000
6000
6000
7F00
0000
0000
0000
0000
ENDCHAR

STARTCHAR <unknown>
ENCODING 201
SWIDTH 42 0
DWIDTH 9 0
BBX 9 16 0 -5
BITMAP
0600
0C00
0000
7F00
6000
6000
6000
7E00
6000
6000
6000
7F00
0000
0000
0000
0000
ENDCHAR

STARTCHAR <unknown>
ENCODING 202
SWIDTH 42 0
DWIDTH 9 0
BBX 9 16 0 -5
BITMAP
0C00
1600
0000
7F00
6000
6000
6000
7E00
6000
6000
6000
7F00
0000
0000
0000
0000
ENDCHAR

STARTCHAR <unknown>
ENCODING 203
SWIDTH 42 0
DWIDTH 9 0
BBX 9 16 0 -5
BITMAP
2200
2200
0000
7F00
6000
6000
6000
7E00
6000
6000
6000
7F00
0000
0000
0000
0000
ENDCHAR

STARTCHAR <unknown>
ENCODING 204
SWIDTH 42 0
DWIDTH 9 0
BBX 9 16 0 -5
BITMAP
1800
0C00
0000
3F00
0C00
0C00
0C00
0C00
0C00
0C00
0C00
3F00
0000
0000
0000
0000
ENDCHAR

STARTCHAR <unknown>
ENCODING 205
SWIDTH 42 0
DWIDTH 9 0
BBX 9 16 0 -5
BITMAP
0600
0C00
0000
3F00
0C00
0C00
0C00
0C00
0C00
0C00
0C00
3F00
0000
0000
0000
0000
ENDCHAR

STARTCHAR <unknown>
ENCODING 206
SWIDTH 42 0
DWIDTH 9 0
BBX 9 16 0 -5
BITMAP
0C00
1600
0000
3F00
0C00
0C00
0C00
0C00
0C00
0C00
0C00
3F00
0000
0000
0000
0000
ENDCHAR

STARTCHAR <unknown>
ENCODING 207
SWIDTH 42 0
DWIDTH 9 0
BBX 9 16 0 -5
BITMAP
1200
1200
0000
3F00
0C00
0C00
0C00
0C00
0C00
0C00
0C00
3F00
0000
0000
0000
0000
ENDCHAR

STARTCHAR <unknown>
ENCODING 208
SWIDTH 42 0
DWIDTH 9 0
BBX 9 16 0 -5
BITMAP
0000
0000
7C00
6600
6300
6300
F300
6300
6300
6300
6600
7C00
0000
0000
0000
0000
ENDCHAR

STARTCHAR <unknown>
ENCODING 209
SWIDTH 42 0
DWIDTH 9 0
BBX 9 16 0 -5
BITMAP
1A00
2C00
0000
6300
7300
7300
7B00
6B00
6F00
6700
6700
6300
0000
0000
0000
0000
ENDCHAR

STARTCHAR <unknown>
ENCODING 210
SWIDTH 42 0
DWIDTH 9 0
BBX 9 16 0 -5
BITMAP
1800
0C00
0000
3E00
6300
6300
6300
6300
6300
6300
6300
3E00
0000
0000
0000
0000
ENDCHAR

STARTCHAR <unknown>
ENCODING 211
SWIDTH 42 0
DWIDTH 9 0
BBX 9 16 0 -5
BITMAP
0600
0C00
0000
3E00
6300
6300
6300
6300
6300
6300
6300
3E00
0000
0000
0000
0000
ENDCHAR

STARTCHAR <unknown>
ENCODING 212
SWIDTH 42 0
DWIDTH 9 0
BBX 9 16 0 -5
BITMAP
0C00
1600
0000
3E00
6300
6300
6300
6300
6300
6300
6300
3E00
0000
0000
0000
0000
ENDCHAR

STARTCHAR <unknown>
ENCODING 213
SWIDTH 42 0
DWIDTH 9 0
BBX 9 16 0 -5
BITMAP
1A00
2C00
0000
3E00
6300
6300
6300
6300
6300
6300
6300
3E00
0000
0000
0000
0000
ENDCHAR

STARTCHAR <unknown>
ENCODING 214
SWIDTH 42 0
DWIDTH 9 0
BBX 9 16 0 -5
BITMAP
2200
2200
0000
3E00
6300
6300
6300
6300
6300
6300
6300
3E00
0000
0000
0000
0000
ENDCHAR

STARTCHAR <unknown>
ENCODING 215
SWIDTH 42 0
DWIDTH 9 0
BBX 9 16 0 -5
BITMAP
0000
0000
0000
0000
6180
3300
1E00
0C00
1E00
3300
6180
0000
0000
0000
0000
0000
ENDCHAR

STARTCHAR <unknown>
ENCODING 216
SWIDTH 42 0
DWIDTH 9 0
BBX 9 16 0 -5
BITMAP
0000
0200
3E00
6700
6700
6F00
6B00
6B00
7B00
7300
7300
3E00
2000
0000
0000
0000
ENDCHAR

STARTCHAR <unknown>
ENCODING 217
SWIDTH 42 0
DWIDTH 9 0
BBX 9 16 0 -5
BITMAP
3000
1800
0000
6300
6300
6300
6300
6300
6300
6300
6300
3E00
0000
0000
0000
0000
ENDCHAR

STARTCHAR <unknown>
ENCODING 218
SWIDTH 42 0
DWIDTH 9 0
BBX 9 16 0 -5
BITMAP
0600
0C00
0000
6300
6300
6300
6300
6300
6300
6300
6300
3E00
0000
0000
0000
0000
ENDCHAR

STARTCHAR <unknown>
ENCODING 219
SWIDTH 42 0
DWIDTH 9 0
BBX 9 16 0 -5
BITMAP
0C00
1600
0000
6300
6300
6300
6300
6300
6300
6300
6300
3E00
0000
0000
0000
0000
ENDCHAR

STARTCHAR <unknown>
ENCODING 220
SWIDTH 42 0
DWIDTH 9 0
BBX 9 16 0 -5
BITMAP
2200
2200
0000
6300
6300
6300
6300
6300
6300
6300
6300
3E00
0000
0000
0000
0000
ENDCHAR

STARTCHAR <unknown>
ENCODING 221
SWIDTH 42 0
DWIDTH 9 0
BBX 9 16 0 -5
BITMAP
0600
0C00
6180
3300
3300
1E00
1E00
0C00
0C00
0C00
0C00
0C00
0000
0000
0000
0000
ENDCHAR

STARTCHAR <unknown>
ENCODING 222
SWIDTH 42 0
DWIDTH 9 0
BBX 9 16 0 -5
BITMAP
7800
3000
3F00
3180
3180
3180
3180
3F00
3000
3000
3000
7800
0000
0000
0000
0000
ENDCHAR

STARTCHAR <unknown>
ENCODING 223
SWIDTH 42 0
DWIDTH 9 0
BBX 9 16 0 -5
BITMAP
0000
0000
1C00
3600
2600
6600
6C00
6600
6300
6300
6300
6E00
0000
0000
0000
0000
ENDCHAR

STARTCHAR <unknown>
ENCODING 224
SWIDTH 42 0
DWIDTH 9 0
BBX 9 16 0 -5
BITMAP
0000
0000
1800
0C00
0000
3E00
0300
0300
3F00
6300
6300
3D80
0000
0000
0000
0000
ENDCHAR

STARTCHAR <unknown>
ENCODING 225
SWIDTH 42 0
DWIDTH 9 0
BBX 9 16 0 -5
BITMAP
0000
0000
0600
0C00
0000
3E00
0300
0300
3F00
6300
6300
3D80
0000
0000
0000
0000
ENDCHAR

STARTCHAR <unknown>
ENCODING 226
SWIDTH 42 0
DWIDTH 9 0
BBX 9 16 0 -5
BITMAP
0000
0000
0C00
1600
0000
3E00
0300
0300
3F00
6300
6300
3D80
0000
0000
0000
0000
ENDCHAR

STARTCHAR <unknown>
ENCODING 227
SWIDTH 42 0
DWIDTH 9 0
BBX 9 16 0 -5
BITMAP
0000
0000
1D00
2E00
0000
3E00
0300
0300
3F00
6300
6300
3D80
0000
0000
0000
0000
ENDCHAR

STARTCHAR <unknown>
ENCODING 228
SWIDTH 42 0
DWIDTH 9 0
BBX 9 16 0 -5
BITMAP
0000
0000
2200
2200
0000
3E00
0300
0300
3F00
6300
6300
3D80
0000
0000
0000
0000
ENDCHAR

STARTCHAR <unknown>
ENCODING 229
SWIDTH 42 0
DWIDTH 9 0
BBX 9 16 0 -5
BITMAP
0000
1C00
3600
1C00
0000
3E00
0300
0300
3F00
6300
6300
3D80
0000
0000
0000
0000
ENDCHAR

STARTCHAR <unknown>
ENCODING 230
SWIDTH 42 0
DWIDTH 9 0
BBX 9 16 0 -5
BITMAP
0000
0000
0000
0000
0000
7700
1D80
0980
7F80
C800
DC80
7700
0000
0000
0000
0000
ENDCHAR

STARTCHAR <unknown>
ENCODING 231
SWIDTH 42 0
DWIDTH 9 0
BBX 9 16 0 -5
BITMAP
0000
0000
0000
0000
0000
3E00
6300
6000
6000
6000
6300
3E00
1800
0C00
3C00
0000
ENDCHAR

STARTCHAR <unknown>
ENCODING 232
SWIDTH 42 0
DWIDTH 9 0
BBX 9 16 0 -5
BITMAP
0000
0000
1800
0C00
0000
3E00
6300
6300
7F00
6000
6300
3E00
0000
0000
0000
0000
ENDCHAR

STARTCHAR <unknown>
ENCODING 233
SWIDTH 42 0
DWIDTH 9 0
BBX 9 16 0 -5
BITMAP
0000
0000
0600
0C00
0000
3E00
6300
6300
7F00
6000
6300
3E00
0000
0000
0000
0000
ENDCHAR

STARTCHAR <unknown>
ENCODING 234
SWIDTH 42 0
DWIDTH 9 0
BBX 9 16 0 -5
BITMAP
0000
0000
0C00
1600
0000
3E00
6300
6300
7F00
6000
6300
3E00
0000
0000
0000
0000
ENDCHAR

STARTCHAR <unknown>
ENCODING 235
SWIDTH 42 0
DWIDTH 9 0
BBX 9 16 0 -5
BITMAP
0000
0000
2200
2200
0000
3E00
6300
6300
7F00
6000
6300
3E00
0000
0000
0000
0000
ENDCHAR

STARTCHAR <unknown>
ENCODING 236
SWIDTH 42 0
DWIDTH 9 0
BBX 9 16 0 -5
BITMAP
0000
0000
1800
0C00
0000
3C00
0C00
0C00
0C00
0C00
0C00
0C00
0000
0000
0000
0000
ENDCHAR

STARTCHAR <unknown>
ENCODING 237
SWIDTH 42 0
DWIDTH 9 0
BBX 9 16 0 -5
BITMAP
0000
0000
0600
0C00
0000
3C00
0C00
0C00
0C00
0C00
0C00
0C00
0000
0000
0000
0000
ENDCHAR

STARTCHAR <unknown>
ENCODING 238
SWIDTH 42 0
DWIDTH 9 0
BBX 9 16 0 -5
BITMAP
0000
0000
0C00
1600
0000
3C00
0C00
0C00
0C00
0C00
0C00
0C00
0000
0000
0000
0000
ENDCHAR

STARTCHAR <unknown>
ENCODING 239
SWIDTH 42 0
DWIDTH 9 0
BBX 9 16 0 -5
BITMAP
0000
0000
2200
2200
0000
3C00
0C00
0C00
0C00
0C00
0C00
0C00
0000
0000
0000
0000
ENDCHAR

STARTCHAR <unknown>
ENCODING 240
SWIDTH 42 0
DWIDTH 9 0
BBX 9 16 0 -5
BITMAP
0000
2400
1800
1C00
2600
0200
3B00
6700
6300
6300
6300
3E00
0000
0000
0000
0000
ENDCHAR

STARTCHAR <unknown>
ENCODING 241
SWIDTH 42 0
DWIDTH 9 0
BBX 9 16 0 -5
BITMAP
0000
0000
1A00
2C00
0000
5E00
7300
6300
6300
6300
6300
6300
0000
0000
0000
0000
ENDCHAR

STARTCHAR <unknown>
ENCODING 242
SWIDTH 42 0
DWIDTH 9 0
BBX 9 16 0 -5
BITMAP
0000
0000
1800
0C00
0000
3E00
6300
6300
6300
6300
6300
3E00
0000
0000
0000
0000
ENDCHAR

STARTCHAR <unknown>
ENCODING 243
SWIDTH 42 0
DWIDTH 9 0
BBX 9 16 0 -5
BITMAP
0000
0000
0600
0C00
0000
3E00
6300
6300
6300
6300
6300
3E00
0000
0000
0000
0000
ENDCHAR

STARTCHAR <unknown>
ENCODING 244
SWIDTH 42 0
DWIDTH 9 0
BBX 9 16 0 -5
BITMAP
0000
0000
0C00
1600
0000
3E00
6300
6300
6300
6300
6300
3E00
0000
0000
0000
0000
ENDCHAR

STARTCHAR <unknown>
ENCODING 245
SWIDTH 42 0
DWIDTH 9 0
BBX 9 16 0 -5
BITMAP
0000
0000
1A00
2C00
0000
3E00
6300
6300
6300
6300
6300
3E00
0000
0000
0000
0000
ENDCHAR

STARTCHAR <unknown>
ENCODING 246
SWIDTH 42 0
DWIDTH 9 0
BBX 9 16 0 -5
BITMAP
0000
0000
2200
2200
0000
3E00
6300
6300
6300
6300
6300
3E00
0000
0000
0000
0000
ENDCHAR

STARTCHAR <unknown>
ENCODING 247
SWIDTH 42 0
DWIDTH 9 0
BBX 9 16 0 -5
BITMAP
0000
0000
0000
0000
0C00
0C00
0000
7F80
7F80
0000
0C00
0C00
0000
0000
0000
0000
ENDCHAR

STARTCHAR <unknown>
ENCODING 248
SWIDTH 42 0
DWIDTH 9 0
BBX 9 16 0 -5
BITMAP
0000
0000
0000
0000
0200
3E00
6700
6F00
6B00
7B00
7300
3E00
2000
0000
0000
0000
ENDCHAR

STARTCHAR <unknown>
ENCODING 249
SWIDTH 42 0
DWIDTH 9 0
BBX 9 16 0 -5
BITMAP
0000
0000
1800
0C00
0000
6300
6300
6300
6300
6300
6700
3B00
0000
0000
0000
0000
ENDCHAR

STARTCHAR <unknown>
ENCODING 250
SWIDTH 42 0
DWIDTH 9 0
BBX 9 16 0 -5
BITMAP
0000
0000
0600
0C00
0000
6300
6300
6300
6300
6300
6700
3B00
0000
0000
0000
0000
ENDCHAR

STARTCHAR <unknown>
ENCODING 251
SWIDTH 42 0
DWIDTH 9 0
BBX 9 16 0 -5
BITMAP
0000
0000
0C00
1600
0000
6300
6300
6300
6300
6300
6700
3B00
0000
0000
0000
0000
ENDCHAR

STARTCHAR <unknown>
ENCODING 252
SWIDTH 42 0
DWIDTH 9 0
BBX 9 16 0 -5
BITMAP
0000
0000
2200
2200
0000
6300
6300
6300
6300
6300
6700
3B00
0000
0000
0000
0000
ENDCHAR

STARTCHAR <unknown>
ENCODING 253
SWIDTH 42 0
DWIDTH 9 0
BBX 9 16 0 -5
BITMAP
0000
0000
0600
0C00
0000
6300
6300
6300
6300
6300
6700
3B00
0300
0300
6600
3C00
ENDCHAR

STARTCHAR <unknown>
ENCODING 254
SWIDTH 42 0
DWIDTH 9 0
BBX 9 16 0 -5
BITMAP
0000
0000
0000
0000
7000
3000
3700
3980
3180
3180
3980
3700
3000
3000
7800
0000
ENDCHAR

STARTCHAR <unknown>
ENCODING 255
SWIDTH 42 0
DWIDTH 9 0
BBX 9 16 0 -5
BITMAP
0000
0000
2200
2200
0000
6300
6300
6300
6300
6300
6700
3B00
0300
0300
6600
3C00
ENDCHAR
ENDFONT
